Mais de 7 mil fãs da lendária Legião Urbana lotaram o Espaço das Américas, na Barra Funda, Zona Oeste de São Paulo, na noite desta terça-feira, em um tributo à banda promovido pela MTV. Com Wagner Moura assumindo os vocais originais de Renato Russo, Marcelo Bonfá e Dado Villa-Lobos desfilaram os maiores sucessos do grupo em um show inesquecível que marcou os 30 anos da banda brasiliense considerada uma das maiores bandas de rock nacional de todos os tempos.

Format                           : MPEG-4
Format profile                   : Base Media
Codec ID                         : isom
File size                        : 2.00 GiB
Duration                         : 2h 15mn
Overall bit rate                 : 2 120 Kbps
Writing application              : Lavf53.13.0

Video
ID                               : 1
Format                           : AVC
Format/Info                      : Advanced Video Codec
Format profile                   : High@L4.1
Format settings, CABAC           : Yes
Format settings, ReFrames        : 4 frames
Codec ID                         : avc1
Codec ID/Info                    : Advanced Video Coding
Duration                         : 2h 15mn
Bit rate mode                    : Variable
Bit rate                         : 1 986 Kbps
Width                            : 1 280 pixels
Height                           : 720 pixels
Display aspect ratio             : 16:9
Frame rate mode                  : Constant
Frame rate                       : 29.970 fps
Color space                      : YUV
Chroma subsampling               : 4:2:0
Bit depth                        : 8 bits
Scan type                        : Progressive
Bits/(Pixel*Frame)               : 0.072
Stream size                      : 1.88 GiB (94%)


Audio
ID                               : 2
Format                           : AAC
Format/Info                      : Advanced Audio Codec
Format profile                   : LC
Codec ID                         : 40
Duration                         : 2h 15mn
Bit rate mode                    : Constant
Bit rate                         : 128 Kbps
Channel(s)                       : 2 channels
Channel positions                : Front: L R
Sampling rate                    : 44.1 KHz
Compression mode                 : Lossy
Stream size                      : 124 MiB (6%)

